#!OML:ASF \\Waltz\H\Terrain\Patient Classification 1\Animal2\Wednesday\Animal2.ASF
:FULLY-SPECIFIED
:DEGREES
847
root 13.4907 18.6618 9.45491 -420.605 79.0449 300.587
lowerback 4.51842 1.41572 9.98272
upperback -4.05337 3.16864 4.98143
thorax -6.61766 1.30849 -0.652358
lowerneck 8.54995 6.00199 18.7673
upperneck -7.02661 9.47979 -9.92502
head -2.10225 4.69174 -6.33156
rclavicle 3.47873e-015 -5.56597e-015
rhumerus 34.8843 37.0444 -26.6397
rradius 57.7276
rwrist -30.0062
rhand -16.4962 16.8777
rfingers 7.12502
rthumb 9.72147 -12.8779
lclavicle 3.47873e-015 -5.56597e-015
lhumerus 9.71418 11.0443 -0.297551
lradius 51.5988
lwrist 9.00478
lhand -50.5257 11.5148
lfingers 7.12502
lthumb -23.0935 40.1509
rfemur 1.30959 -8.21725 18.0862
rtibia 29.9677
rfoot 12.1458 -2.49109
rtoes 45.404
lfemur -20.1373 19.0166 -16.0843
ltibia 29.6628
lfoot -4.41505 22.86
ltoes 10.7413
848
root 13.5788 18.6585 9.40695 -424.985 79.6345 296.203
lowerback 4.25404 1.2877 9.73387
upperback -4.18229 2.97691 5.14022
thorax -6.6382 1.23264 -0.324426
lowerneck 8.95824 5.92117 18.6396
upperneck -7.18914 9.43194 -9.90329
head -2.23064 4.6709 -6.33018
rclavicle 1.37161e-014 3.4191e-014
rhumerus 35.1394 37.4422 -26.5054
rradius 57.6437
rwrist -30.033
rhand -16.3831 17.2046
rfingers 7.12502
rthumb 9.83053 -12.5459
lclavicle 1.37161e-014 3.4191e-014
lhumerus 9.69881 11.0256 -0.842503
lradius 51.1811
lwrist 8.67215
lhand -50.4514 10.598
lfingers 7.12502
lthumb -23.0222 39.243
rfemur 1.10522 -8.38312 17.3423
rtibia 30.8113
rfoot 13.8028 -1.65471
rtoes 46.5293
lfemur -19.7833 18.6753 -16.5926
ltibia 29.3436
lfoot -3.912 21.9071
ltoes 4.63426
849
root 13.6632 18.6268 9.36607 -430.784 79.7707 290.674
lowerback 4.23908 1.12984 9.83258
upperback -4.17373 2.80177 5.3834
thorax -6.64599 1.15563 -0.105881
lowerneck 9.24212 5.88735 18.7556
upperneck -7.35962 9.44075 -10.0525
head -2.31276 4.67821 -6.41359
rclavicle 3.38928e-014 7.79236e-014
rhumerus 35.2356 37.6119 -26.5987
rradius 57.6508
rwrist -30.0103
rhand -16.0374 17.6032
rfingers 7.12502
rthumb 10.164 -12.1313
lclavicle 3.38928e-014 7.79236e-014
lhumerus 9.6491 10.9385 -1.54288
lradius 51.1351
lwrist 8.50055
lhand -50.232 10.8622
lfingers 7.12502
lthumb -22.8118 39.5333
rfemur 1.21657 -8.48896 17.0624
rtibia 31.6792
rfoot 14.8753 -0.16965
rtoes 44.2497
lfemur -19.1285 18.1395 -16.4855
ltibia 29.1151
lfoot -2.08906 21.207
ltoes -8.74738
850
root 13.7572 18.5905 9.32657 -437.431 79.0906 284.504
lowerback 4.23762 0.941788 10.5507
upperback -4.03212 2.6553 5.89998
thorax -6.51552 1.08802 0.0609054
lowerneck 9.51679 5.79087 18.862
upperneck -7.60976 9.35699 -10.2686
head -2.42741 4.64012 -6.51979
rclavicle -2.48481e-014 2.38542e-015
rhumerus 35.3946 37.8327 -26.4096
rradius 57.8505
rwrist -30.0928
rhand -15.9084 17.5814
rfingers 7.12502
rthumb 10.2885 -12.1469
lclavicle -2.48481e-014 2.38542e-015
lhumerus 9.35275 10.439 -2.45213
lradius 51.493
lwrist 9.08505
lhand -50.0089 12.3475
lfingers 7.12502
lthumb -22.5976 41.0448
rfemur 1.58483 -8.67585 17.4988
rtibia 32.6318
rfoot 15.6723 0.878844
rtoes 42.7678
lfemur -18.1303 17.3351 -15.2936
ltibia 28.948
lfoot -2.11359 20.564
ltoes -12.2812
851
root 13.8561 18.5677 9.27473 -442.589 78.7497 279.48
lowerback 3.80807 0.744698 10.8354
upperback -3.93871 2.39425 6.36739
thorax -6.20545 0.98911 0.430951
lowerneck 9.76165 5.75415 18.7556
upperneck -7.87879 9.32422 -10.4161
head -2.54862 4.62894 -6.57147
rclavicle -1.21259e-014 -1.11319e-014
rhumerus 35.9856 38.1184 -25.9664
rradius 57.967
rwrist -30.1491
rhand -15.8508 17.1871
rfingers 7.12502
rthumb 10.3441 -12.5385
lclavicle -1.21259e-014 -1.11319e-014
lhumerus 8.84064 10.11 -3.24843
lradius 51.6192
lwrist 9.3621
lhand -49.925 13.112
lfingers 7.12502
lthumb -22.5171 41.8191
rfemur 1.59638 -8.93989 17.3556
rtibia 33.5805
rfoot 16.4133 1.65531
rtoes 42.8625
lfemur -17.5074 16.5462 -14.6792
ltibia 28.9005
lfoot -3.46614 19.9188
ltoes -9.59557
852
root 13.9493 18.5267 9.22361 -447.08 78.704 274.993
lowerback 3.52808 0.655818 10.9095
upperback -4.09034 2.2848 6.54885
thorax -6.22467 0.942136 0.598067
lowerneck 9.94161 5.6775 18.7348
upperneck -7.87031 9.25661 -10.3608
head -2.58938 4.59613 -6.55891
rclavicle -3.97569e-015 -9.46215e-014
rhumerus 35.9614 38.4717 -26.0582
rradius 58.0732
rwrist -30.1463
rhand -15.77 16.9521
rfingers 7.12502
rthumb 10.422 -12.7696
lclavicle -3.97569e-015 -9.46215e-014
lhumerus 8.93533 10.079 -3.69396
lradius 51.4236
lwrist 9.00777
lhand -49.9781 13.6788
lfingers 7.12502
lthumb -22.5681 42.3797
rfemur 1.39857 -8.92867 16.8577
rtibia 34.5224
rfoot 17.1494 2.00159
rtoes 45.2718
lfemur -17.0839 16.4117 -14.6637
ltibia 28.8619
lfoot -3.28343 19.0635
ltoes -14.9675
853
root 14.0372 18.4769 9.17221 -451.854 78.9387 270.345
lowerback 3.54121 0.73539 10.6888
upperback -4.37637 2.41871 6.50924
thorax -6.53688 1.00195 0.667274
lowerneck 9.95888 5.42959 19.018
upperneck -7.47663 8.97099 -10.3777
head -2.50368 4.46083 -6.59394
rclavicle -1.45113e-014 4.45278e-014
rhumerus 35.0526 38.7488 -26.5258
rradius 58.2247
rwrist -30.1102
rhand -15.7003 16.9033
rfingers 7.12502
rthumb 10.4893 -12.815
lclavicle -1.45113e-014 4.45278e-014
lhumerus 9.6548 10.0128 -3.73649
lradius 51.2955
lwrist 8.72369
lhand -49.9876 13.8891
lfingers 7.12502
lthumb -22.5772 42.5889
rfemur 1.28773 -8.74107 16.0135
rtibia 35.5092
rfoot 17.7145 2.79737
rtoes 46.2646
lfemur -16.4679 16.6004 -15.0329
ltibia 28.6998
lfoot -3.80513 17.8375
ltoes -16.5796
854
root 14.1244 18.4305 9.11961 -457.346 79.5211 265.058
lowerback 3.59973 0.65559 9.69593
upperback -4.5581 2.29087 6.65325
thorax -6.80335 0.981675 1.37288
lowerneck 10.0708 5.35709 18.9826
upperneck -7.15016 8.88516 -10.5217
head -2.43019 4.43933 -6.62765
rclavicle -1.07344e-014 -2.46493e-014
rhumerus 35.0011 39.1479 -26.3743
rradius 58.2982
rwrist -30.0273
rhand -15.3102 16.9053
rfingers 7.12502
rthumb 10.8655 -12.7936
lclavicle -1.07344e-014 -2.46493e-014
lhumerus 9.60784 9.83755 -3.87337
lradius 51.3103
lwrist 8.53778
lhand -49.8283 12.9702
lfingers 7.12502
lthumb -22.4243 41.6885
rfemur 1.29622 -8.78297 14.6265
rtibia 36.4714
rfoot 17.7956 4.28632
rtoes 46.0213
lfemur -15.7445 16.5285 -15.8178
ltibia 28.4781
lfoot -4.51502 16.6018
ltoes -18.0477
855
root 14.2104 18.377 9.07542 -463.085 79.8705 259.69
lowerback 3.69852 0.448553 8.82335
upperback -4.52302 1.98358 6.88029
thorax -6.86115 0.882382 2.11841
lowerneck 10.2766 5.50737 18.5268
upperneck -7.24027 9.07255 -10.3614
head -2.49037 4.53663 -6.51976
rclavicle 1.72943e-014 -2.70347e-014
rhumerus 35.5106 39.4601 -26.1227
rradius 58.3617
rwrist -29.7406
rhand -14.9481 16.898
rfingers 7.12502
rthumb 11.2149 -12.7822
lclavicle 1.72943e-014 -2.70347e-014
lhumerus 9.15088 9.9112 -4.31387
lradius 51.384
lwrist 8.25204
lhand -49.4641 13.0581
lfingers 7.12502
lthumb -22.0747 41.8181
rfemur 1.55756 -9.03015 13.3435
rtibia 37.2264
rfoot 17.7343 5.41627
rtoes 46.0402
lfemur -14.9251 16.2109 -16.3454
ltibia 28.3742
lfoot -5.54923 15.7304
ltoes -19.9063
